# xmcd
# 
# Track frame offsets:
#     150
#     14758
#     36474
#     61887
#     80309
#     98641
#     120183
#     136618
#     152246
#     175415
#     196161
#     215440
#     231243
#     249905
#     270606
#     287067
#     309571
#     336430
# 
# Disc length: 4790
# 
# Revision: 1
# Processed by: cddbd v1.5.2PL0 Copyright (c) Steve Scherf et al.
# Submitted via: BonkEnc v1.0.5
# 
DISCID=f912b412
DTITLE=Various Artist - Soul In The City
DYEAR=2006
DGENRE=Soul
TTITLE0=Katie Melua - Nine Million Bicycles
TTITLE1=Jamie Cullum - High And Dry
TTITLE2=RZA feat. Xavier Naidoo - Ich kenne nichts (das so schön ist wie du) Radio Edit
TTITLE3=Toni Braxton - Trippin' (That's The Way Love Works) Radio Edit
TTITLE4=Kool and the Gang - Take My Heart
TTITLE5=Aaliyah - Everything's Gonna Be Alright
TTITLE6=Incognito - When Tomorrow Brings You Down
TTITLE7=Jeff Cascaro - Soul Of A Singer
TTITLE8=Cultured Pearls - Two Becomes Three (Soulounge Remix)
TTITLE9=Cathi Ogden - Time Till Wait
TTITLE10=Soulounge - Waiting In Vain
TTITLE11=Titiyo feat. Stephen Simmons - Comin' Home
TTITLE12=Mousse T. feat. Roachford - Pop Muzak
TTITLE13=Lisa Stansfield - He Touches Me - Radio Mix
TTITLE14=D`Sound - Birthday (Radio Edit)
TTITLE15=Randy Crawford - One Day I'll Fly Away (Album Version)
TTITLE16=Carmen Cuesta-Loeb - Shape Of My Heart
TTITLE17=Joel Harrison and Norah Jones - I Walk The Line
EXTD=
EXTT0=
EXTT1=
EXTT2=
EXTT3=
EXTT4=
EXTT5=
EXTT6=
EXTT7=
EXTT8=
EXTT9=
EXTT10=
EXTT11=
EXTT12=
EXTT13=
EXTT14=
EXTT15=
EXTT16=
EXTT17=
PLAYORDER=
